<svg xmlns="http://www.w3.org/2000/svg" width="17.98" height="17.98" viewBox="0 0 17.98 17.98">
  <path id="share" d="M13.97,10.16A3.8,3.8,0,0,0,10.9,11.727L7.438,9.993a3.759,3.759,0,0,0,.182-1.1,3.758,3.758,0,0,0-.182-1.1L10.9,6.052A3.794,3.794,0,1,0,10.16,3.81a3.758,3.758,0,0,0,.182,1.1L6.875,6.648a3.81,3.81,0,1,0,0,4.484l3.467,1.734a3.757,3.757,0,0,0-.182,1.1,3.81,3.81,0,1,0,3.81-3.81Zm0-8.89a2.54,2.54,0,1,1-2.54,2.54A2.543,2.543,0,0,1,13.97,1.27ZM3.81,11.43A2.54,2.54,0,1,1,6.35,8.89a2.543,2.543,0,0,1-2.54,2.54Zm10.16,5.08a2.54,2.54,0,1,1,2.54-2.54A2.543,2.543,0,0,1,13.97,16.51Z" transform="translate(0.1 0.1)" fill="#fff" stroke="#fff" stroke-width="0.2"/>
</svg>
