<svg xmlns="http://www.w3.org/2000/svg" width="32.144" height="29.052" viewBox="0 0 32.144 29.052">
  <g id="heart" transform="translate(0.25 -0.251)">
    <path id="Path_64" data-name="Path 64" d="M40.618,262.6a.618.618,0,1,0,.618.618A.618.618,0,0,0,40.618,262.6Zm0,0" transform="translate(-37.528 -245.903)" fill="#fff" stroke="#fff" stroke-width="0.5"/>
    <path id="Path_65" data-name="Path 65" d="M28.4,227.211l-5.825,2a2.466,2.466,0,0,0-2.431-2.91h-4a.618.618,0,0,1-.3-.079l-3.264-1.836a4.329,4.329,0,0,0-2.121-.556H6.072A1.856,1.856,0,0,0,4.325,222.6H.618a.618.618,0,0,0-.618.618v11.122a.618.618,0,0,0,.618.618H4.325a1.857,1.857,0,0,0,1.73-1.189,5.641,5.641,0,0,1,2.017.6L11.3,236.3a7.877,7.877,0,0,0,7.312.417l11.532-5.078a2.382,2.382,0,0,0-1.749-4.431ZM4.943,233.1a.619.619,0,0,1-.618.615H1.236v-9.886H4.325a.619.619,0,0,1,.618.618Zm24.736-2.6-.02.008-11.552,5.086a6.641,6.641,0,0,1-6.168-.35L8.708,233.3a6.813,6.813,0,0,0-2.529-.769v-7.467h4.274a3.091,3.091,0,0,1,1.515.4l3.264,1.836a1.856,1.856,0,0,0,.909.238h4a1.236,1.236,0,1,1,0,2.472H13.862a.618.618,0,1,0,0,1.236h6.281a2.467,2.467,0,0,0,1.158-.289l7.513-2.583a1.147,1.147,0,1,1,.865,2.124Zm0,0" transform="translate(0 -208.374)" fill="#fff" stroke="#fff" stroke-width="0.5"/>
    <path id="Path_66" data-name="Path 66" d="M168.062,15.488a.618.618,0,0,0,.81,0c5.041-4.369,8.16-6.58,8.16-10.016A4.731,4.731,0,0,0,172.4.5a4.575,4.575,0,0,0-4.011,2.559,4.493,4.493,0,0,0-8.418.858.618.618,0,1,0,1.186.348,3.353,3.353,0,0,1,3.222-2.528c1.763,0,3,1.565,3.415,3.023a.618.618,0,0,0,1.191,0c.008-.03.867-3.023,3.415-3.023A3.5,3.5,0,0,1,175.8,5.472c0,2.749-2.687,4.73-7.329,8.733-2.828-2.429-5.075-4.139-6.352-5.811a.618.618,0,1,0-.982.75c1.439,1.885,3.869,3.692,6.93,6.345Zm0,0" transform="translate(-150.066)" fill="#fff" stroke="#fff" stroke-width="0.5"/>
    <path id="Path_67" data-name="Path 67" d="M159.618,88.6a.618.618,0,1,0,.618.618A.618.618,0,0,0,159.618,88.6Zm0,0" transform="translate(-149.176 -82.654)" fill="#fff" stroke="#fff" stroke-width="0.5"/>
  </g>
</svg>
