<svg xmlns="http://www.w3.org/2000/svg" width="17.761" height="17.761" viewBox="0 0 17.761 17.761">
  <path id="link" d="M4.309,17.763a4.26,4.26,0,0,1-3.033-1.276A4.256,4.256,0,0,1,0,13.293,5.116,5.116,0,0,1,1.613,9.868L3.428,8.046a.694.694,0,1,1,.983.979L2.6,10.848c-1.471,1.471-1.61,3.386-.339,4.658s3.186,1.133,4.657-.338l2.494-2.494a3.76,3.76,0,0,0,1.205-2.5,2.883,2.883,0,0,0-.868-2.161,3.071,3.071,0,0,0-.65-.5.694.694,0,0,1,.687-1.206,4.459,4.459,0,0,1,.944.723A4.256,4.256,0,0,1,12,10.23a5.116,5.116,0,0,1-1.611,3.425L7.895,16.149A5.117,5.117,0,0,1,4.469,17.76Zm4.616-6.572a.694.694,0,0,0-.259-.946,3.071,3.071,0,0,1-.65-.5C6.744,8.475,6.883,6.561,8.353,5.09L10.847,2.6c1.47-1.47,3.385-1.609,4.657-.338s1.133,3.186-.339,4.658L13.349,8.74a.694.694,0,0,0,.983.979L16.147,7.9a5.117,5.117,0,0,0,1.611-3.425,4.256,4.256,0,0,0-1.273-3.194A4.257,4.257,0,0,0,13.291,0,5.116,5.116,0,0,0,9.866,1.615L7.372,4.109A5.117,5.117,0,0,0,5.761,7.534a4.256,4.256,0,0,0,1.273,3.194,4.459,4.459,0,0,0,.944.723.693.693,0,0,0,.946-.26Z" transform="translate(0.001 -0.002)" fill="#fff"/>
</svg>
