<svg xmlns="http://www.w3.org/2000/svg" width="25.913" height="21.384" viewBox="0 0 25.913 21.384">
  <g id="solution" transform="translate(0 0)">
    <path id="Path_69" data-name="Path 69" d="M191.9,109.606a1.813,1.813,0,0,1-1.6-.92c-.058,0-.115-.01-.173-.01h-.089a3.244,3.244,0,0,0-2.588,1.407,3.205,3.205,0,0,0-.579,1.848,3.255,3.255,0,1,0,5.527-2.325Zm-2.235,1.86h.93a1.4,1.4,0,1,1,0,2.79v.465h-.93v-.465a1.4,1.4,0,0,1-1.4-1.4h.93a.465.465,0,0,0,.465.465h.93a.465.465,0,0,0,0-.93h-.93a1.4,1.4,0,0,1,0-2.79v-.465h.93v.465a1.4,1.4,0,0,1,1.4,1.4h-.93a.465.465,0,0,0-.465-.465h-.93a.465.465,0,1,0,0,.93Zm0,0" transform="translate(-178.165 -103.56)" fill="#fff"/>
    <path id="Path_70" data-name="Path 70" d="M516.32-1.141h1.86V5.37h-1.86Zm0,0" transform="translate(-492.267 1.141)" fill="#fff"/>
    <path id="Path_71" data-name="Path 71" d="M195.7,4.44c0,.7,1.152,1.4,2.325,1.4s2.325-.691,2.325-1.4a.465.465,0,0,1,.465-.465h.556V.254h-.554a.459.459,0,0,1-.183-.038l-3.168-1.358h-4.8a2.325,2.325,0,0,0-1.642.681l-3.787,3.784a.913.913,0,0,0-.165,1.108c0,.006.008.009.012.015a4.187,4.187,0,0,1,3.023-1.4h.008a1.86,1.86,0,0,1,1.86-1.86H197.1v.93h-5.116a.93.93,0,0,0,0,1.86h3.255a.465.465,0,0,1,.465.465Zm0,0" transform="translate(-178.253 1.141)" fill="#fff"/>
    <path id="Path_72" data-name="Path 72" d="M71.633,347.935l2.622-.954,2.227,6.119-2.622.954Zm0,0" transform="translate(-68.296 -333.505)" fill="#fff"/>
    <path id="Path_73" data-name="Path 73" d="M0,384.622l2.622-.955,1.909,5.244-2.622.954Zm0,0" transform="translate(0 -368.483)" fill="#fff"/>
    <path id="Path_74" data-name="Path 74" d="M155.539,341.372a.466.466,0,0,1,.308,0l2.667.9,9.462-3.442a.93.93,0,0,0-.636-1.749l-3.019,1.1a1.952,1.952,0,0,1-.019.25,1.866,1.866,0,0,1-2.156,1.515l-5.235-.923.161-.916,5.236.924a.934.934,0,0,0,1.078-.757.85.85,0,0,0,0-.315,1.452,1.452,0,0,0-.039-.163.922.922,0,0,0-.713-.6l-6.2-1.093-2.92,1.063,1.591,4.372Zm0,0" transform="translate(-146.36 -323.129)" fill="#fff"/>
  </g>
</svg>
