<svg xmlns="http://www.w3.org/2000/svg" width="24.995" height="25" viewBox="0 0 24.995 25">
  <g id="heart" transform="translate(-0.054 0)">
    <g id="Group_4349" data-name="Group 4349" transform="translate(0.054 14.746)">
      <g id="Group_4348" data-name="Group 4348" transform="translate(0)">
        <path id="Path_7604" data-name="Path 7604" d="M2.349,302H.786a.732.732,0,0,0-.732.732v8.789a.732.732,0,0,0,.732.732H2.349a2.2,2.2,0,0,0,2.2-2.2V304.2A2.2,2.2,0,0,0,2.349,302Z" transform="translate(-0.054 -302)" fill="#fff"/>
      </g>
    </g>
    <g id="Group_4351" data-name="Group 4351" transform="translate(6.011 14.465)">
      <g id="Group_4350" data-name="Group 4350">
        <path id="Path_7605" data-name="Path 7605" d="M140.879,297.948a1.342,1.342,0,0,0-.337-.366,1.451,1.451,0,0,0-1.977.147l-3.325,3.838-.1.117a2.161,2.161,0,0,1-1.611.7h-5.684a.732.732,0,1,1,0-1.465h4.468a1.469,1.469,0,0,0,1.465-1.465v-.015a1.466,1.466,0,0,0-1.465-1.45h-2.651a2.016,2.016,0,0,1-1.289-.483,5.134,5.134,0,0,0-6.313-.337v9.009a16.907,16.907,0,0,0,4.453.6h6.533a5.134,5.134,0,0,0,4.1-2.051l3.516-4.687A1.94,1.94,0,0,0,140.879,297.948Z" transform="translate(-122.056 -296.246)" fill="#fff"/>
      </g>
    </g>
    <g id="Group_4353" data-name="Group 4353" transform="translate(4.888 0)">
      <g id="Group_4352" data-name="Group 4352">
        <path id="Path_7606" data-name="Path 7606" d="M113.859,1.416a4.172,4.172,0,0,0-6.619.465c-.066.092-.128.185-.186.276-.058-.091-.12-.184-.186-.276a4.172,4.172,0,0,0-6.619-.465,4.883,4.883,0,0,0-1.2,3.261,5.9,5.9,0,0,0,1.641,3.9,35.444,35.444,0,0,0,4,3.7c.6.506,1.22,1.029,1.879,1.6a.732.732,0,0,0,.959,0c.659-.571,1.279-1.094,1.878-1.6,1.042-.88,1.942-1.639,2.723-2.376,1.516-1.431,2.919-3.054,2.919-5.23A4.883,4.883,0,0,0,113.859,1.416Z" transform="translate(-99.054 0)" fill="#fff"/>
      </g>
    </g>
  </g>
</svg>
