<svg xmlns="http://www.w3.org/2000/svg" width="26.66" height="22" viewBox="0 0 26.66 22">
  <g id="solution" transform="translate(0 1.141)">
    <path id="Path_69" data-name="Path 69" d="M192.04,109.633a1.866,1.866,0,0,1-1.643-.946c-.06,0-.118-.01-.178-.01h-.091a3.338,3.338,0,0,0-2.663,1.448,3.3,3.3,0,0,0-.6,1.9,3.349,3.349,0,1,0,5.686-2.392Zm-2.3,1.914h.957a1.435,1.435,0,1,1,0,2.871v.479h-.957v-.479a1.435,1.435,0,0,1-1.435-1.435h.957a.478.478,0,0,0,.478.479h.957a.479.479,0,0,0,0-.957h-.957a1.435,1.435,0,0,1,0-2.871v-.478h.957v.478a1.435,1.435,0,0,1,1.435,1.435h-.957a.478.478,0,0,0-.478-.478h-.957a.478.478,0,1,0,0,.957Zm0,0" transform="translate(-177.914 -104.554)" fill="#fff"/>
    <path id="Path_70" data-name="Path 70" d="M516.32-1.141h1.914v6.7H516.32Zm0,0" transform="translate(-491.574 0)" fill="#fff"/>
    <path id="Path_71" data-name="Path 71" d="M195.956,4.6c0,.725,1.185,1.436,2.393,1.436s2.392-.711,2.392-1.436a.478.478,0,0,1,.478-.478h.572V.295h-.57a.472.472,0,0,1-.188-.039l-3.259-1.4h-4.936a2.392,2.392,0,0,0-1.689.7l-3.9,3.893a.939.939,0,0,0-.17,1.14c0,.006.009.01.012.015a4.308,4.308,0,0,1,3.11-1.442h.008a1.914,1.914,0,0,1,1.914-1.914h5.263v.957h-5.263a.957.957,0,0,0,0,1.914h3.349a.478.478,0,0,1,.478.478Zm0,0" transform="translate(-178.002)" fill="#fff"/>
    <path id="Path_72" data-name="Path 72" d="M71.633,347.963l2.7-.982,2.291,6.295-2.7.982Zm0,0" transform="translate(-68.2 -334.257)" fill="#fff"/>
    <path id="Path_73" data-name="Path 73" d="M0,384.65l2.7-.982,1.964,5.4-2.7.982Zm0,0" transform="translate(0 -369.186)" fill="#fff"/>
    <path id="Path_74" data-name="Path 74" d="M155.6,341.524a.479.479,0,0,1,.317,0l2.743.927,9.734-3.541a.957.957,0,0,0-.655-1.8l-3.106,1.128a2.009,2.009,0,0,1-.02.257,1.919,1.919,0,0,1-2.218,1.559l-5.386-.95.166-.943,5.387.951a.961.961,0,0,0,1.109-.778.875.875,0,0,0,0-.325,1.491,1.491,0,0,0-.041-.168.948.948,0,0,0-.733-.616l-6.376-1.124-3,1.093,1.636,4.5Zm0,0" transform="translate(-146.154 -323.896)" fill="#fff"/>
  </g>
</svg>
